# AST/ASF file generated using VICON BodyLanguage
# -----------------------------------------------
:version 1.10
:name VICON
:units
  mass 1.0
  length 0.45
  angle deg
:documentation
   .ast/.asf automatically generated from VICON data using
   VICON BodyBuilder and BodyLanguage model FoxedUp or BRILLIANT.MOD
:root
   order TX TY TZ RX RY RZ
   axis XYZ
   position 0 0 0  
   orientation 0 0 0 
:bonedata
  begin
     id 1 
     name lhipjoint
     direction 0.630082 -0.636569 0.44472 
     length 2.82754 
     axis 0 0 0  XYZ
  end
  begin
     id 2 
     name lfemur
     direction 0.34202 -0.939693 0  
     length 7.26371  
     axis 0 0 20  XYZ
    dof rx ry rz
    limits (-160.0 20.0)
           (-70.0 70.0)
           (-60.0 70.0)
  end
  begin
     id 3 
     name ltibia
     direction 0.34202 -0.939693 0   
     length 7.88616   
     axis 0 0 20   XYZ
    dof rx
    limits (-10.0 170.0)
  end
  begin
     id 4 
     name lfoot
     direction 0.0603448 -0.165796 0.984312   
     length 1.77861   
     axis -90 7.62852e-016 20   XYZ
    dof rx rz
    limits (-45.0 90.0)
           (-70.0 20.0)
  end
  begin
     id 5 
     name ltoes
     direction 1.53577e-011 -4.21876e-011 1   
     length 0.902235   
     axis -90 7.62852e-016 20   XYZ
    dof rx
    limits (-90.0 20.0)
  end
  begin
     id 6 
     name rhipjoint
     direction -0.656778 -0.61817 0.431866   
     length 2.9117  
     axis 0 0 0  XYZ 
  end
  begin
     id 7 
     name rfemur
     direction -0.34202 -0.939693 0   
     length 6.81603   
     axis 0 0 -20   XYZ
    dof rx ry rz
    limits (-160.0 20.0)
           (-70.0 70.0)
           (-70.0 60.0)
  end
  begin
     id 8 
     name rtibia
     direction -0.34202 -0.939693 0   
     length 8.05997   
     axis 0 0 -20   XYZ
    dof rx
    limits (-10.0 170.0)
 end
 begin
     id 9 
     name rfoot
     direction -0.0862404 -0.236944 0.967688   
     length 1.84899  
     axis -90 -7.62852e-016 -20   XYZ
    dof rx rz
    limits (-45.0 90.0)
           (-20.0 70.0)
  end
  begin
     id 10 
     name rtoes
     direction -1.53561e-011 -4.21798e-011 1   
     length 0.931579   
     axis -90 -7.62852e-016 -20   XYZ
    dof rx
    limits (-90.0 20.0)
  end
  begin
     id 11 
     name lowerback
     direction -0.0110203 0.991769 -0.127564   
     length 2.05686   
     axis 0 0 0   XYZ
    dof rx ry rz
    limits (-20.0 45.0)
           (-30.0 30.0)
           (-30.0 30.0)
  end
  begin
     id 12 
     name upperback
     direction 0.0109719 0.99993 -0.00432479   
     length 2.06234   
     axis 0 0 0   XYZ
    dof rx ry rz
    limits (-20.0 45.0)
           (-30.0 30.0)
           (-30.0 30.0)
  end
  begin
     id 13 
     name thorax
     direction 0.0173308 0.998351 0.0547306   
     length 2.09856   
     axis 0 0 0   XYZ
    dof rx ry rz
    limits (-20.0 45.0)
           (-30.0 30.0)
           (-30.0 30.0)
  end
  begin
     id 14 
     name lowerneck
     direction -0.0311736 0.989033 0.144366   
     length 1.98151   
     axis 0 0 0   XYZ
    dof rx ry rz
    limits (-20.0 45.0)
           (-30.0 30.0)
           (-30.0 30.0)
  end
  begin
     id 15 
     name upperneck
     direction 0.0421057 0.975772 -0.214698   
     length 2.01457   
     axis 0 0 0   XYZ
    dof rx ry rz
    limits (-20.0 45.0)
           (-30.0 30.0)
           (-30.0 30.0)
  end
  begin
     id 16
     name head
     direction 0.0136911 0.995958 -0.0887718  
     length 2.03562  
     axis 0 0 0   XYZ
    dof rx ry rz
    limits (-20.0 45.0)
           (-30.0 30.0)
           (-30.0 30.0)
  end
  begin
     id 17 
     name lclavicle
     direction 0.915335 0.396201 0.0720134  
     length 4.16217  
     axis 0 0 0   XYZ
    dof ry rz
    limits (-20.0 10.0)
           (0.0 20.0)
  end
  begin
     id 18 
     name lhumerus
     direction 1 -4.48965e-011 6.383e-018   
     length 4.93042   
     axis -180 -30 -90   XYZ
    dof rx ry rz
    limits (-60.0 90.0)
           (-90.0 90.0)
           (-90.0 90.0)
  end
  begin
     id 19
     name lradius
     direction 1 -4.48972e-011 8.8689e-027   
     length 3.68177   
     axis -180 -30 -90   XYZ
    dof rx
    limits (-10.0 170.0)
  end
  begin
     id 20
     name lwrist
     direction 1 -4.48953e-011 1.17971e-026   
     length 1.84089   
     axis -7.69454e-015 90 90   XYZ
    dof ry
    limits (-180.0 0.0)
 end
  begin
     id 21 
     name lhand
     direction 1 -4.49027e-011 2.35802e-026   
     length 0.721479   
     axis -1.50533e-014 90 90   XYZ
    dof rx rz
    limits (-90.0 90.0)
           (-45.0 45.0)
  end
  begin
     id 22 
     name lfingers
     direction 1 -4.48915e-011 4.72027e-026   
     length 0.581675   
     axis -3.01059e-014 90 90   XYZ
    dof rx
    limits (0.0 90.0)
  end
  begin
     id 23
     name lthumb
     direction 0.707107 -6.34948e-011 0.707107   
     length 0.835172   
     axis -90 45 -5.12164e-014   XYZ
    dof rx rz
    limits (-45.0 45.0)
           (-45.0 45.0)
  end
  begin
     id 24 
     name rclavicle
     direction -0.882781 0.469197 0.0234974   
     length 3.95647  
     axis 0 0 0   XYZ 
    dof ry rz
    limits (-10.0 20.0)
           (-20.0 0.0)
  end
  begin
     id 25 
     name rhumerus
     direction -1 -4.48965e-011 -1.54906e-018  
     length 5.07905   
     axis -180 30 90   XYZ
    dof rx ry rz
    limits (-90.0 60.0)
           (-90.0 90.0)
           (-90.0 90.0)
  end
  begin
     id 26 
     name rradius
     direction -1 -4.48972e-011 5.47489e-027   
     length 3.54394   
     axis -180 30 90   XYZ
    dof rx
    limits (-10.0 170.0)
  end
  begin
     id 27 
     name rwrist
     direction -1 -4.48955e-011 1.17969e-026   
     length 1.77197   
     axis -7.69454e-015 -90 -90   XYZ
    dof ry
    limits (-180.0 0.0)
  end
  begin
     id 28
     name rhand
     direction -1 -4.48982e-011 2.35888e-026   
     length 0.681156   
     axis -1.50533e-014 -90 -90   XYZ
    dof rx rz
    limits (-90.0 90.0)
           (-45.0 45.0)
  end
  begin
     id 29
     name rfingers
     direction -1 -4.48955e-011 4.71877e-026   
     length 0.549165   
     axis -3.01059e-014 -90 -90   XYZ
    dof rx
    limits (0.0 90.0)
  end
  begin
     id 30
     name rthumb
     direction -0.707107 -6.3491e-011 0.707107   
     length 0.788495   
     axis -90 -45 5.12164e-014   XYZ
    dof rx rz
    limits (-45.0 45.0)
           (-45.0 45.0)
  end
:hierarchy
  begin
    root lhipjoint rhipjoint lowerback
    lhipjoint lfemur
    lfemur ltibia
    ltibia lfoot
    lfoot ltoes
    rhipjoint rfemur
    rfemur rtibia
    rtibia rfoot
    rfoot rtoes
    lowerback upperback
    upperback thorax
    thorax lowerneck lclavicle rclavicle
    lowerneck upperneck
    upperneck head
    lclavicle lhumerus
    lhumerus lradius
    lradius lwrist
    lwrist lhand lthumb
    lhand lfingers
    rclavicle rhumerus
    rhumerus rradius
    rradius rwrist
    rwrist rhand rthumb
    rhand rfingers
  end

#!OML:ASF H:\Bending\Project 1\Capture day 1\Session 1\Subject.ASF
:FULLY-SPECIFIED
:DEGREES
531
root -10.3937 17.9107 -16.4195 -94.4098 87.768 -99.1602
lowerback 3.02211 -0.0731989 1.35722
upperback -2.74223 0.0925799 2.06985
thorax -4.52797 0.0535939 1.36991
lowerneck -22.7638 -5.3089 -7.81725
upperneck 29.2995 -6.34842 5.973
head 14.3441 -2.62728 2.58141
rclavicle -5.2181e-016 1.47101e-014
rhumerus -38.0164 -3.24562 -78.9474
rradius 28.8272
rwrist 12.948
rhand -16.0373 -19.758
rfingers 7.12502
rthumb 10.1642 -49.4925
lclavicle -5.2181e-016 1.47101e-014
lhumerus -35.5482 10.471 86.2874
lradius 24.4267
lwrist 19.1149
lhand -30.7271 8.33974
lfingers 7.12502
lthumb -4.01963 38.2816
rfemur 3.41949 1.48643 13.7712
rtibia 7.95139e-015
rfoot -7.61941 -17.5789
rtoes -4.51009
lfemur -9.62284 -28.4094 -8.93389
ltibia 22.6168
lfoot -29.8913 19.9573
ltoes 1.45938
532
root -10.3928 17.9101 -16.4188 -93.6017 87.7585 -98.3378
lowerback 3.03587 -0.0704331 1.36144
upperback -2.74709 0.0975298 2.07823
thorax -4.54096 0.0561246 1.37595
lowerneck -22.7346 -5.29214 -7.83898
upperneck 29.3327 -6.33138 6.01547
head 14.3537 -2.61592 2.6073
rclavicle 6.1499e-016 -2.38542e-015
rhumerus -38.056 -3.59701 -78.7201
rradius 28.5752
rwrist 13.2695
rhand -16.04 -19.8629
rfingers 7.12502
rthumb 10.1616 -49.5975
lclavicle 6.1499e-016 -2.38542e-015
lhumerus -35.5812 10.6312 86.2196
lradius 24.3446
lwrist 18.9798
lhand -30.7878 8.34566
lfingers 7.12502
lthumb -4.07824 38.2864
rfemur 3.42961 1.51937 13.7896
rtibia 3.18055e-015
rfoot -7.6183 -17.5804
rtoes -4.67213
lfemur -9.58077 -28.3813 -8.93448
ltibia 22.6006
lfoot -29.8732 19.9873
ltoes 1.22797
533
root -10.3921 17.909 -16.4186 -93.2428 87.7439 -97.9489
lowerback 3.06326 -0.0735975 1.3772
upperback -2.74737 0.0951986 2.08417
thorax -4.55682 0.0545648 1.37352
lowerneck -22.7174 -5.28037 -7.84999
upperneck 29.3883 -6.32153 6.04633
head 14.3754 -2.60754 2.62561
rclavicle -1.3977e-016 6.36111e-015
rhumerus -38.0683 -4.06217 -78.4439
rradius 28.2756
rwrist 13.7202
rhand -16.0882 -19.9378
rfingers 7.12502
rthumb 10.1151 -49.6747
lclavicle -1.3977e-016 6.36111e-015
lhumerus -35.6089 10.7482 86.1693
lradius 24.285
lwrist 18.8974
lhand -30.8474 8.42094
lfingers 7.12502
lthumb -4.13582 38.3605
rfemur 3.45973 1.53704 13.8099
rtibia 1.59028e-015
rfoot -7.623 -17.5824
rtoes -4.69663
lfemur -9.53441 -28.3778 -8.93848
ltibia 22.5949
lfoot -29.8671 20.0111
ltoes 1.06158
534
root -10.3918 17.9079 -16.419 -93.1797 87.7299 -97.8533
lowerback 3.09196 -0.081241 1.3997
upperback -2.74447 0.0869918 2.08714
thorax -4.57003 0.0497801 1.36464
lowerneck -22.7161 -5.2776 -7.84932
upperneck 29.461 -6.3229 6.05961
head 14.408 -2.60469 2.63271
rclavicle -7.3923e-016 1.11319e-014
rhumerus -38.0654 -4.54007 -78.1622
rradius 27.9613
rwrist 14.2117
rhand -16.142 -19.9624
rfingers 7.12502
rthumb 10.0632 -49.7018
lclavicle -7.3923e-016 1.11319e-014
lhumerus -35.6273 10.8121 86.1434
lradius 24.2425
lwrist 18.8658
lhand -30.8953 8.52609
lfingers 7.12502
lthumb -4.18207 38.4648
rfemur 3.4938 1.54357 13.8265
rtibia -1.59028e-015
rfoot -7.62136 -17.5884
rtoes -4.63776
lfemur -9.49767 -28.3887 -8.94427
ltibia 22.6
lfoot -29.8761 20.0164
ltoes 1.04053
535
root -10.3919 17.9072 -16.4199 -93.1209 87.7228 -97.773
lowerback 3.11077 -0.0900995 1.41949
upperback -2.74129 0.0765593 2.08674
thorax -4.57728 0.0439075 1.35391
lowerneck -22.73 -5.28359 -7.83616
upperneck 29.54 -6.33469 6.05308
head 14.4462 -2.60748 2.6274
rclavicle -4.69008e-016 -1.59028e-015
rhumerus -38.0591 -4.94977 -77.9125
rradius 27.664
rwrist 14.6643
rhand -16.1479 -19.9252
rfingers 7.12502
rthumb 10.0575 -49.6649
lclavicle -4.69008e-016 -1.59028e-015
lhumerus -35.6323 10.8428 86.1336
lradius 24.204
lwrist 18.8508
lhand -30.9246 8.60253
lfingers 7.12502
lthumb -4.2103 38.5407
rfemur 3.51365 1.54866 13.8348
rtibia -2.22639e-014
rfoot -7.60249 -17.601
rtoes -4.59648
lfemur -9.47905 -28.3939 -8.95021
ltibia 22.6096
lfoot -29.8911 20.0006
ltoes 1.152
536
root -10.3926 17.9073 -16.4208 -92.7728 87.7282 -97.4226
lowerback 3.11408 -0.0961645 1.42645
upperback -2.7406 0.0686151 2.08228
thorax -4.57832 0.0396132 1.34596
lowerneck -22.7525 -5.29443 -7.80973
upperneck 29.6116 -6.35235 6.02882
head 14.4822 -2.61389 2.61097
rclavicle 2.70223e-016 3.97569e-016
rhumerus -38.0577 -5.26375 -77.7113
rradius 27.405
rwrist 15.0395
rhand -16.0711 -19.8272
rfingers 7.12502
rthumb 10.1316 -49.5633
lclavicle 2.70223e-016 3.97569e-016
lhumerus -35.621 10.8721 86.124
lradius 24.1548
lwrist 18.8087
lhand -30.9295 8.60108
lfingers 7.12502
lthumb -4.21505 38.5391
rfemur 3.50773 1.56302 13.8312
rtibia -1.43125e-014
rfoot -7.56494 -17.6199
rtoes -4.64549
lfemur -9.47709 -28.3802 -8.95723
ltibia 22.613
lfoot -29.9015 19.9737
ltoes 1.31885
